PathFileType	4	(X/Y/Z)	4_coords_data.trc
DataRate	CameraRate	NumFrames	NumMarkers	Units	OrigDataRate	OrigDataStartFrame	OrigNumFrames
30.0	30.0	8	21	m	30.0	19	47
Frame#	Time	THUMB_TIP	THUMB_IP	THUMB_MCP	THUMB_CMC	INDEX_TIP	INDEX_DIP	INDEX_PIP	INDEX_MCP	MIDDLE_TIP	MIDDLE_DIP	MIDDLE_PIP	MIDDLE_MCP	RING_TIP	RING_DIP	RING_PIP	RING_MCP	PINKY_TIP	PINKY_DIP	PINKY_PIP	PINKY_MCP	WRIST
X1	Y1	Z1	X2	Y2	Z2	X3	Y3	Z3	X4	Y4	Z4	X5	Y5	Z5	X6	Y6	Z6	X7	Y7	Z7	X8	Y8	Z8	X9	Y9	Z9	X10	Y10	Z10	X11	Y11	Z11	X12	Y12	Z12	X13	Y13	Z13	X14	Y14	Z14	X15	Y15	Z15	X16	Y16	Z16	X17	Y17	Z17	X18	Y18	Z18	X19	Y19	Z19	X20	Y20	Z20	X21	Y21	Z21
17	0.5999999999999973	0.5425143376756384	-0.021645306748133475	-0.13967254702012052	0.5260955066163113	-0.01673461658324127	-0.12436545360727073	0.496119665846784	-0.016299226404485445	-0.11599410929753219	0.4759295698927618	-0.024726441325781945	-0.07711954082355865	0.5705778222202328	0.043103076038040644	-0.1527917221078433	0.5555396578387513	0.03878356959002238	-0.14367056669413245	0.5349959243516009	0.03396456784734636	-0.13000520648618236	0.5014787281314498	0.031120664855552094	-0.10388728414704607	0.5091212026998457	-0.008477417435494572	-0.10956205969897598	0.5250796544606158	-0.007820953036046019	-0.11810002619524618	0.5437034815349222	0.014502454209842863	-0.11604379079030681	0.5154973030289871	0.02936282637071297	-0.08474317171764689	0.5101836018016759	-0.01974996926092576	-0.09906376569567546	0.5269273661178429	-0.018708800113801494	-0.10566394170330837	0.5478721988050304	-0.005334457393693093	-0.10404501628476473	0.5293520108096359	0.014683656866818606	-0.07419541709033076	0.6014045422506306	0.012869978068203225	-0.0849769106753161	0.5855422412883295	0.00677817680320969	-0.08290873139652846	0.5656420273136299	0.0010618039090672937	-0.07942784304780426	0.5318750667536944	-0.00984755887629829	-0.07297326101942797	0.4622830810018609	-0.023011742144276925	-0.051989820119430985
18	0.6333333333333304	0.5428596036727265	-0.021760106087822195	-0.1393888065524589	0.5264032015662243	-0.016807364216561038	-0.12413570268256509	0.49640088846105657	-0.016369086586023318	-0.11585988725095676	0.4759904015590294	-0.024729810858299617	-0.07708618077265952	0.5708420249993451	0.04216277844903693	-0.15266242826444018	0.5557438502898103	0.038145883593863394	-0.1435022057691703	0.5351277357122701	0.033655831514989076	-0.12983380845804676	0.5015321213247934	0.03118596527192541	-0.10377866407791803	0.5089606154771462	-0.00831811537140581	-0.1092565565549942	0.5249072311148314	-0.007944506256973183	-0.11783361117377503	0.5437446267162231	0.014207651700583468	-0.1158730054561116	0.5155537624108453	0.029339389548607597	-0.08468881714834167	0.5098587922363097	-0.01951130812748958	-0.09861330258444967	0.5265068840205275	-0.018833010744776946	-0.1054966849365255	0.5476106431825916	-0.0056910076119928155	-0.10404786407545003	0.5293826476589429	0.014617707014667358	-0.07421470930759594	0.6014441397014851	0.012576952200204827	-0.0852591547487545	0.585540720066342	0.006605668268142795	-0.08315558347322366	0.5656265502124925	0.0009118886194662279	-0.079717745294317	0.531875493648899	-0.00988389412243662	-0.07299459820156778	0.4622830810018608	-0.023011742144276925	-0.051989820119430985
19	0.6666666666666637	0.5430230411545192	-0.021491294661586058	-0.13919317973836204	0.5265108876395639	-0.016595793527858893	-0.12398190579604465	0.49648298330532625	-0.016235803051147246	-0.11579561431879089	0.4760428328086588	-0.024698233227315236	-0.07705961654944116	0.5710391886946358	0.04041189614264906	-0.1526657078858544	0.5558725295430431	0.03705382575927185	-0.14335464921996155	0.5351794428115264	0.03334795380449529	-0.12956797059250644	0.5015098867790511	0.031406717325816014	-0.10356357305074723	0.5090829491959842	-0.007874351999864637	-0.1087935676582781	0.5249316718980027	-0.007817461214043808	-0.11755797021367285	0.5438680848257651	0.014253548695644436	-0.11563642474303606	0.5155628105354032	0.029406475804249377	-0.08456637214590185	0.5097575567651218	-0.01908414281330517	-0.09829720250520457	0.5263060961872821	-0.018716894211700974	-0.10543939904813338	0.5474866479187503	-0.005697470194013454	-0.10400454518858421	0.5293664095633144	0.014682292553069964	-0.07415420069618708	0.6015763717441718	0.01192439195215067	-0.08598678904320525	0.5856061370700013	0.006286582280066844	-0.08350350360788394	0.5656717173641559	0.0008804689648558295	-0.07973456890238703	0.531900840162345	-0.009723713037965931	-0.07280906328393305	0.4622830810018608	-0.023011742144276925	-0.051989820119430985
20	0.6999999999999968	0.5428609627484815	-0.02076658168612211	-0.1393036600331527	0.5262890572113961	-0.01612588888721156	-0.12407750105539145	0.4962715872972231	-0.015887865069964424	-0.11584859805352422	0.4760511072284095	-0.024630384326547516	-0.07705954621109085	0.5709843047022661	0.03784371078401383	-0.15286220534836678	0.5557864580177071	0.035487670918691094	-0.14329797342386558	0.5350620988459539	0.03304102899300532	-0.12927924619177894	0.5013735222781679	0.03179318099550277	-0.10325697153694635	0.5095239462317127	-0.0077568926444094854	-0.1088389063361817	0.5253800028830204	-0.007498204454552293	-0.11758639442653916	0.5440910320533623	0.014737576618026438	-0.11537800644455595	0.5155193311570317	0.02955861034588514	-0.08439183552705959	0.5101680154878069	-0.01884293159013417	-0.09844290317664442	0.5267246855401684	-0.01837949758001267	-0.10556062090745558	0.5477756928036676	-0.005184774471077791	-0.10384762520674876	0.5293238348903283	0.014862417468222255	-0.07397523211722873	0.6017443967432591	0.010894744178858495	-0.0871657511803958	0.5857408722518428	0.005760206744939822	-0.08392172140366466	0.5658265928011701	0.0009184503171714153	-0.07936201881964797	0.5319849059305906	-0.00935143158203633	-0.07228012595615713	0.462283081001861	-0.023011742144276925	-0.051989820119430985
21	0.7333333333333302	0.5420906204152298	-0.01964489077161735	-0.1398850832149052	0.5254606229887119	-0.015418420369479158	-0.12460175460056663	0.49550498504288953	-0.015363343511058614	-0.11614736391888712	0.4759928414304908	-0.02454146423669734	-0.07709703291395537	0.5705107540247927	0.03444189947348997	-0.1532789635854343	0.5553800546411537	0.03347554848606271	-0.14337300063723757	0.5347387254127516	0.03273155824643881	-0.12904150248777474	0.5010903436510428	0.03228666547237413	-0.10294122338509293	0.5103592196538608	-0.007956847614640106	-0.10959408673887255	0.5263266037915308	-0.0070177470287376975	-0.11808883416829263	0.5444126786565172	0.01564983524331176	-0.11517607603930703	0.5154184567406768	0.029749991685905863	-0.08424601614946259	0.5112447139925725	-0.018795375104614265	-0.09915262511950615	0.5279021332267384	-0.017862179706255144	-0.10598340331863745	0.5485457788864881	-0.004136876261825462	-0.10360939442374523	0.529255092613789	0.015116340754564028	-0.07374463439376816	0.6018038001924284	0.009245552203443475	-0.08897337536112729	0.5858631976116077	0.004812424582872787	-0.08458651214693103	0.566075806430102	0.000860909365328566	-0.07878507295345596	0.5321170762592808	-0.008828306108670025	-0.07144973385537795	0.4622830810018609	-0.023011742144276925	-0.051989820119430985
22	0.7666666666666633	0.5407191568083968	-0.018083464429238694	-0.14093813781872994	0.5240809479191949	-0.014481503648664407	-0.12550454188341761	0.4942467108299837	-0.014658725796266037	-0.11663285153630054	0.4758382240914544	-0.024413021427939885	-0.0771883166458078	0.5694272637998651	0.030342541469222994	-0.15388092592982933	0.5545374205387203	0.031138146354732332	-0.14360184131471398	0.5341760543682905	0.03249275646820704	-0.12891887049426531	0.5006522628075788	0.03285025781024642	-0.10265742182545803	0.5116194741346372	-0.008387975528891922	-0.11118900172481734	0.5277566347371938	-0.00629915511354362	-0.11914066048005298	0.5447942691422987	0.016995772105738882	-0.11508172838819343	0.515259957946462	0.0299584131865539	-0.08416502870343659	0.5130101194716477	-0.01889000366491178	-0.10060887283690242	0.5298269693600941	-0.017074081637847183	-0.1068455375722461	0.5497289956578704	-0.0025098100855264205	-0.10338557768911402	0.5291355621933131	0.015424370192566594	-0.07356953318462428	0.6014439008197736	0.006906554544270582	-0.09160504325814203	0.5857721105588727	0.0034446884749970152	-0.08565437326756642	0.5663343368764089	0.0007436141720789102	-0.07819185553697189	0.5322474948412501	-0.00813637697102465	-0.0704383783577616	0.4622830810018609	-0.023011742144276925	-0.051989820119430985
23	0.7999999999999965	0.5386538678928329	-0.01615317530618343	-0.14250997320414252	0.5221009735259879	-0.013316719941227184	-0.12682698212964788	0.4924798249832334	-0.013783935833868055	-0.11727767491300942	0.4755840035496285	-0.024218456863060678	-0.07733343892112854	0.5676203094323783	0.025693639453418626	-0.15457599265253105	0.5532374281834247	0.028614952674110516	-0.14396474126331654	0.5334317548722669	0.032348307283294186	-0.128937858650686	0.5001302432958994	0.033423260563945956	-0.10241447470041534	0.5134572980319622	-0.008923103304371738	-0.11368930253397842	0.5297278718341571	-0.005247897960583892	-0.12074347107664307	0.5452378718837555	0.018773553232599882	-0.1151026084622069	0.5150563628527282	0.030148534959230644	-0.08418603969513913	0.5155998366555198	-0.01904321305301293	-0.10284923555595099	0.5325516198780749	-0.01591151234834509	-0.1081246024883912	0.5512939241486748	-0.0002811086529800333	-0.1031651176413367	0.5289792317049984	0.01573572369751297	-0.07349633915956685	0.6002821384172646	0.0038254141946774123	-0.0949997142613365	0.585271307441866	0.0016949548487580346	-0.0870538916857064	0.5665480201123636	0.0006100085793938614	-0.07761601998868214	0.5323546315124688	-0.0073357100862002644	-0.06933585199860945	0.4622830810018609	-0.023011742144276925	-0.051989820119430985
24	0.8333333333333297	0.5357849041038085	-0.013886095295053025	-0.14457991261861444	0.5194456296018451	-0.011935521545013317	-0.1285417278461676	0.49015909346532305	-0.012749433715932512	-0.11803190633949068	0.4751601047842551	-0.024016949028523138	-0.07756014535450598	0.5649747857178	0.020812037643679115	-0.15530789178920143	0.5514660972555993	0.02610153456097608	-0.14446646391308152	0.5325310963864012	0.032331222773333446	-0.12914763367509388	0.4995140730687254	0.033935348560461986	-0.10229732556328391	0.5160244724016777	-0.00944221720313565	-0.11712488898865622	0.5322457301765674	-0.003768929233170515	-0.12284193366317392	0.5457477858108739	0.020913966469361167	-0.11523544279115913	0.5148242955780988	0.03026437585852837	-0.08437356473621166	0.5191504819358111	-0.019051555652075503	-0.10587093560199826	0.5360983569455791	-0.014318605589720756	-0.10979123104501563	0.5531441458212014	0.0024862755449374108	-0.10291976608783857	0.5287930688703506	0.015993798415469218	-0.07360607114442011	0.5979078857945848	1.5472198526822467e-05	-0.0989115217150962	0.5842134701549201	-0.0003672572421844489	-0.08864913902571467	0.5666873930763	0.0004463524609864544	-0.0771171539197072	0.5324242255790246	-0.0065122451994943376	-0.06825731629968296	0.4622830810018608	-0.023011742144276925	-0.051989820119430985
